<svg xmlns="http://www.w3.org/2000/svg" 
     xmlns:xlink="http://www.w3.org/1999/xlink" 
     version="1.1" baseProfile="full" 
     width="5cm" height="20cm">
             
  <circle cx="72" cy="72" r="64" 
    style="fill:yellow;stroke:black;stroke-width:4"
    style="fill:yellow;stroke:black;stroke-width:6"/>
    <path d="M30.399,74.633c16.841,23.034,53.97,43.701,86.431,5.017c-1.459-0.969-2.388-1.513-4.608-2.146  c3.702-1.643,10.889,0.622,10.294,6.878c-1.491-2.17-3.346-3.461-3.346-3.461c-38.763,50.08-75.706,36.05-90.756-4.703  c-1.051,0.929-1.778,1.576-3.316,3.822c-1.13-5.722,5.337-10.087,10.47-8.349C33.143,72.66,31.981,73.365,30.399,74.633z"/>
	<ellipse cx="55.203" cy="51.5" rx="6.704" ry="13.417"/>
	<ellipse cx="87.667" cy="51.5" rx="6.704" ry="13.417"/>


  <animateTransform attributeName="transform"
                          attributeType="XML"
                          type="translate"
                          from="0 0"
                          to="150 20"
                          dur="10s"
                          repeatCount="indefinite"/>
   		
</svg>